<svg xmlns="http://www.w3.org/2000/svg" viewBox="0 0 171.7 171.7"><defs><style>.cls-1{fill:#391f0e;}.cls-2{fill:#eadb1c;}.cls-3{fill:#e9da1c;}</style></defs><title>Asset 24</title><g id="Layer_2" data-name="Layer 2"><g id="Layer_1-2" data-name="Layer 1"><circle class="cls-1" cx="85.85" cy="85.85" r="85.85"/><circle class="cls-2" cx="85.85" cy="85.85" r="76.98"/><circle class="cls-1" cx="85.85" cy="85.85" r="66.53"/><path class="cls-3" d="M70.44,56.29a6.51,6.51,0,0,0-9.22,0L19.31,98.2a66.22,66.22,0,0,0,4.18,14.39l47-47a6.52,6.52,0,0,0,0-9.23Z"/><path class="cls-3" d="M77.08,88a6.51,6.51,0,0,0-9.22,0L30.58,125.31a66.53,66.53,0,0,0,8.65,9.93L77.15,97.32a6.54,6.54,0,0,0,0-9.23Z"/><path class="cls-3" d="M83.79,119.83l-.06-.06a6.52,6.52,0,0,0-9.23,0l-24,24a66.09,66.09,0,0,0,12.65,5.92l20.67-20.67A6.52,6.52,0,0,0,83.79,119.83Z"/><path class="cls-2" d="M104.24,34.83s-1.36,15.23-17.45,17.44c0,0,15.23,1.37,17.45,17.45,0,0,1.36-15.23,17.44-17.45C121.68,52.27,106.46,50.91,104.24,34.83Z"/><path class="cls-2" d="M131.69,72.31S130.85,81.68,121,83c0,0,9.37.84,10.74,10.73,0,0,.84-9.37,10.73-10.73C142.42,83,133.05,82.2,131.69,72.31Z"/><path class="cls-2" d="M109.61,104.2a6.14,6.14,0,0,1-5.37,5.37,6.14,6.14,0,0,1,5.37,5.36,6.12,6.12,0,0,1,5.36-5.36A6.13,6.13,0,0,1,109.61,104.2Z"/></g></g></svg>