<svg width="27" height="22" viewBox="0 0 27 22" fill="none" xmlns="http://www.w3.org/2000/svg">
<path d="M8.49096 22C18.6797 22 24.2525 13.5352 24.2525 6.19459C24.2525 5.95416 24.2525 5.71482 24.2363 5.47655C25.3204 4.69019 26.2563 3.71654 27 2.60117C25.9891 3.05062 24.9165 3.34523 23.8183 3.47515C24.9748 2.781 25.8403 1.68908 26.2537 0.402663C25.1664 1.04977 23.9767 1.50578 22.7362 1.75101C21.901 0.860433 20.7963 0.270718 19.5932 0.0731174C18.3901 -0.124483 17.1556 0.0810484 16.0807 0.657906C15.0058 1.23476 14.1505 2.15079 13.6471 3.26423C13.1437 4.37766 13.0202 5.62644 13.2959 6.81732C11.0935 6.70653 8.93898 6.13258 6.97214 5.1327C5.0053 4.13283 3.27011 2.72939 1.8792 1.01348C1.17082 2.23637 0.953856 3.68403 1.27249 5.0617C1.59112 6.43937 2.42138 7.64346 3.59424 8.42883C2.71264 8.40293 1.85023 8.16444 1.08 7.73354V7.80394C1.08035 9.08645 1.52308 10.3294 2.3331 11.3219C3.14313 12.3144 4.27057 12.9953 5.5242 13.2493C4.70867 13.4724 3.85298 13.505 3.02292 13.3446C3.37704 14.4483 4.06623 15.4134 4.99414 16.1051C5.92206 16.7967 7.0423 17.1803 8.19828 17.2023C7.04974 18.1076 5.73448 18.7769 4.32773 19.172C2.92099 19.5671 1.45037 19.6802 0 19.5048C2.53331 21.1349 5.48092 21.9996 8.49096 21.9957" fill="#1DA1F2"/>
</svg>
