<svg width="27" height="27" viewBox="0 0 27 27" fill="none" xmlns="http://www.w3.org/2000/svg">
<g clip-path="url(#clip0_2_477)">
<path d="M26.4623 6.95865C26.3097 6.38424 26.0088 5.86 25.5899 5.43839C25.171 5.01677 24.6487 4.71259 24.0753 4.55626C21.9644 3.98865 13.5269 3.98865 13.5269 3.98865C13.5269 3.98865 5.08936 3.98865 2.97845 4.55626C2.40503 4.71259 1.88272 5.01677 1.4638 5.43839C1.04489 5.86 0.744049 6.38424 0.591401 6.95865C0.0268555 9.07876 0.0268555 13.5 0.0268555 13.5C0.0268555 13.5 0.0268555 17.9213 0.591401 20.0414C0.744049 20.6158 1.04489 21.14 1.4638 21.5616C1.88272 21.9832 2.40503 22.2874 2.97845 22.4438C5.08936 23.0114 13.5269 23.0114 13.5269 23.0114C13.5269 23.0114 21.9644 23.0114 24.0753 22.4438C24.6487 22.2874 25.171 21.9832 25.5899 21.5616C26.0088 21.14 26.3097 20.6158 26.4623 20.0414C27.0269 17.9213 27.0269 13.5 27.0269 13.5C27.0269 13.5 27.0269 9.07876 26.4623 6.95865Z" fill="#FF0302"/>
<path d="M10.7656 17.5148V9.48532L17.8224 13.5L10.7656 17.5148Z" fill="#FEFEFE"/>
</g>
<defs>
<clipPath id="clip0_2_477">
<rect width="27" height="27" fill="white"/>
</clipPath>
</defs>
</svg>
